# xmcd
#
# Track frame offsets:
#	150
#	12352
#	24541
#	35546
#	53461
#	67868
#	79009
#	91078
#	101282
#	116623
#	128691
#	141487
#	154992
#	168713
#	181592
#	194896
#	209341
#	222623
#	234346
#	245472
#	255221
#	268462
#	280051
#	294042
#	309461
#
# Disc length: 4361 seconds
# Revision: 0
# Processed by: cddbd v1.5.2PL0 Copyright (c) Steve Scherf et al.
# Submitted via: dBpowerAMP V12.0
#
DISCID=5e110719
DTITLE=Various Artist - Essential Detroit Blues
DYEAR=1900
DGENRE=Blues
TTITLE0=John Lee Hooker - Love Money Can't Buy
TTITLE1=Eddie 'Guitar' Burns - Papa's Boogie
TTITLE2=Big Maceo - Big City Blues
TTITLE3=Doctor Ross - Industrial Boogie
TTITLE4=Playboy Fuller - Sugar Cane Highway
TTITLE5=Bobo Jenkins - Baby Don't You Want To Go
TTITLE6=Baby Boy Warren - My Special Friend Blues
TTITLE7=Eddie Kirkland - That's All Right
TTITLE8=John Lee Hooker - I Do Like I Please
TTITLE9=Joe Weaver and His Blues Notes - 10. J.B. Boogie
TTITLE10=Robert Henry - Something's Wrong With My Little Machine
TTITLE11=One String Sam - Need $100
TTITLE12=L.C. Green - Remember Way Back
TTITLE13=Calvin Frazier - Sweet Lucy (Drinkin' Woman)
TTITLE14=Sylvester Cotton - Sak /Relation Blues
TTITLE15=Walter Mitchell - Stop Messin' Around
TTITLE16=Slim Pickens - Notoriety Woman
TTITLE17=Baby Boy Warren - Somebody Put Bad Luck On Me
TTITLE18=Johnny Howard - Dark Night Blues
TTITLE19=Bobo Jenkins - Ten Below Zero
TTITLE20=Eddie 'Guitar' Burns - Dealing With the Devil
TTITLE21=Sam Kelly - Ramblin' Around Blues
TTITLE22=Paul Williams - The Hucklebuck
TTITLE23=Robert Richard - Wig Wearing Woman
TTITLE24=John Lee Hooker - Prison Bound Blues
EXTD=
EXTT0=
EXTT1=
EXTT2=
EXTT3=
EXTT4=
EXTT5=
EXTT6=
EXTT7=
EXTT8=
EXTT9=
EXTT10=
EXTT11=
EXTT12=
EXTT13=
EXTT14=
EXTT15=
EXTT16=
EXTT17=
EXTT18=
EXTT19=
EXTT20=
EXTT21=
EXTT22=
EXTT23=
EXTT24=
PLAYORDER=
